<?xml version="1.0" standalone="no"?><!DOCTYPE svg PUBLIC "-//W3C//DTD SVG 1.1//EN" "http://www.w3.org/Graphics/SVG/1.1/DTD/svg11.dtd"><svg t="1570430022017" class="icon" viewBox="0 0 1024 1024" version="1.1" xmlns="http://www.w3.org/2000/svg" p-id="4681" xmlns:xlink="http://www.w3.org/1999/xlink" width="200" height="200"><defs><style type="text/css"></style></defs><path d="M512 67C266.24 67 67 241.33 67 456.37c0 122.9 65.23 232.32 166.87 303.69V957l195-118.3a508.35 508.35 0 0 0 83.17 7c245.77 0 445-174.32 445-389.37S757.77 67 512 67zM289.5 512a55.62 55.62 0 1 1 55.62-55.62A55.62 55.62 0 0 1 289.5 512z m222.5 0a55.62 55.62 0 1 1 55.62-55.62A55.62 55.62 0 0 1 512 512z m222.5 0a55.62 55.62 0 1 1 55.62-55.62A55.62 55.62 0 0 1 734.5 512z" p-id="4682" fill="#515151"></path></svg>