<?xml version="1.0" standalone="no"?><!DOCTYPE svg PUBLIC "-//W3C//DTD SVG 1.1//EN" "http://www.w3.org/Graphics/SVG/1.1/DTD/svg11.dtd"><svg t="1569921631725" class="icon" viewBox="0 0 1024 1024" version="1.1" xmlns="http://www.w3.org/2000/svg" p-id="1356" xmlns:xlink="http://www.w3.org/1999/xlink" width="200" height="200"><defs><style type="text/css"></style></defs><path d="M921.328 921.216a78.08 78.08 0 0 1-110.4 0l-144.976-140.528 36.288-37.328 145.264 140.8a25.968 25.968 0 0 0 44.64-18.144 25.76 25.76 0 0 0-7.584-18.384l-141.072-145.6 37.312-36.096 140.8 145.264a78.096 78.096 0 0 1-0.272 110.016z m-471.2-133.184a338 338 0 1 1 338-338.016 338.384 338.384 0 0 1-338 338zM448.128 176a272 272 0 1 0 272 272 272.304 272.304 0 0 0-272-272z m-144.96 421.008a208.192 208.192 0 0 1 0-294.128l36.8 36.8a156.176 156.176 0 0 0 0 220.592z" p-id="1357" fill="#2c2c2c"></path></svg>