<?xml version="1.0" standalone="no"?><!DOCTYPE svg PUBLIC "-//W3C//DTD SVG 1.1//EN" "http://www.w3.org/Graphics/SVG/1.1/DTD/svg11.dtd"><svg t="1569921661753" class="icon" viewBox="0 0 1024 1024" version="1.1" xmlns="http://www.w3.org/2000/svg" p-id="2257" xmlns:xlink="http://www.w3.org/1999/xlink" width="200" height="200"><defs><style type="text/css"></style></defs><path d="M511.3 736.2c-20.7 0-37.3-16.7-37.3-37.3V325.5c0-20.6 16.7-37.3 37.3-37.3 20.6 0 37.3 16.7 37.3 37.3v373.3c0.1 20.7-16.6 37.4-37.3 37.4" fill="#2c2c2c" p-id="2258"></path><path d="M698 549.5H324.7c-20.7 0-37.3-16.7-37.3-37.3 0-20.6 16.7-37.3 37.3-37.3H698c20.6 0 37.3 16.7 37.3 37.3 0 20.6-16.7 37.3-37.3 37.3" fill="#2c2c2c" p-id="2259"></path><path d="M510.8 960.2c-118.7 0-231-45.9-316.3-131.2C91.1 725.6 45.6 582.5 69.6 436.5 101 244.4 258.4 92.8 452.3 67.9c154.5-19.7 305.5 39.5 404.2 158.6 13.2 15.9 10.9 39.4-5 52.6-15.9 13.2-39.4 10.9-52.6-5-82.2-99.2-208-148.8-337.2-132.1-161.4 20.7-292.3 146.8-318.5 306.6-20 122 17.9 241.3 104.1 327.5 86.2 86.2 205.6 124.1 327.5 104.1C735 854 864.3 717.2 882.3 555c4.2-37.3 2.8-74.6-3.7-110.8-2.6-14.1-6-28.2-10.3-41.7-6-19.8 5.1-40.6 24.8-46.6 19.8-6.2 40.6 5 46.6 24.7 5 16.3 9.2 33.2 12.2 50.2 8 43.4 9.5 88 4.6 132.4C934.6 761.2 782.6 921.9 587 954c-25.6 4.1-51 6.2-76.2 6.2" fill="#2c2c2c" p-id="2260"></path></svg>