<?xml version="1.0" standalone="no"?><!DOCTYPE svg PUBLIC "-//W3C//DTD SVG 1.1//EN" "http://www.w3.org/Graphics/SVG/1.1/DTD/svg11.dtd"><svg t="1570179769513" class="icon" viewBox="0 0 1024 1024" version="1.1" xmlns="http://www.w3.org/2000/svg" p-id="5667" xmlns:xlink="http://www.w3.org/1999/xlink" width="200" height="200"><defs><style type="text/css"></style></defs><path d="M64.1 512.1c0 247.4 200.6 448 448 448s448-200.6 448-448-200.6-448-448-448-448 200.6-448 448z m526.2 0.1L431.5 353.3c-11.6-11.6-11.6-30.6 0-42.2s30.6-11.6 42.2 0l179.9 180c11.6 11.6 11.6 30.6 0 42.2L474.9 712.1c-5.9 5.8-13.5 8.7-21.1 8.7-7.6 0-15.3-2.9-21.1-8.7-11.6-11.6-11.6-30.6 0-42.2l157.6-157.7z" fill="#e6e6e6" p-id="5668"></path></svg>