<?xml version="1.0" standalone="no"?><!DOCTYPE svg PUBLIC "-//W3C//DTD SVG 1.1//EN" "http://www.w3.org/Graphics/SVG/1.1/DTD/svg11.dtd"><svg t="1569833528450" class="icon" viewBox="0 0 1024 1024" version="1.1" xmlns="http://www.w3.org/2000/svg" p-id="3483" xmlns:xlink="http://www.w3.org/1999/xlink" width="200" height="200"><defs><style type="text/css"></style></defs><path d="M848.538291 423.605787C791.552415 513.330298 714.395128 601.49836 625.397165 678.581969 494.935857 791.57544 336.057337 876.942713 346.058109 872.226295c106.98564 37.530778 228.703819 30.463826 334.945515-29.991058 165.655877-94.262874 241.662969-288.506856 195.925275-466.601021C868.308567 391.371642 858.842984 407.373081 848.538291 423.605787zM872.396675 106.294908c-17.455557-17.900695-47.63388-21.713534-70.15685-21.713534l-0.730641 0c-36.302811 0.132006-81.687464 9.838066-131.376143 28.048823-18.47477-9.824763-37.626969-18.190291-57.279564-25.049512-0.137123-0.064468-0.226151-0.098237-0.25378-0.088004-106.782002-37.190017-228.160443-29.913287-334.127893 30.368658C112.392278 212.365712 36.38314 407.377174 82.866824 585.850985c-0.427742 0.803295-0.849344 1.603521-1.270946 2.402723 0.421602-0.798179 0.849344-1.599428 1.270946-2.397606 5.196349 19.956517 11.923564 39.706327 20.231787 59.08877C82.053296 690.873923 69.249689 733.064838 65.917804 767.718079c-3.357468 34.903951 2.693342 61.396325 17.969257 78.747505 40.232306 45.692668 123.444497 27.791973 169.472809 13.05841 98.577133-31.567973 217.271442-105.929588 343.253738-215.044728 85.763292-74.280774 159.996994-159.050436 214.675314-245.143233 51.826366-81.612763 81.700767-158.632927 84.124979-216.873376C896.802528 149.010779 889.060193 123.385145 872.396675 106.294908zM354.870822 614.080933c-27.533077 15.667841-62.525032 5.720282-77.992305-22.179139-15.46625-27.903513-5.647627-63.335491 21.894659-79.008448 27.539216-15.667841 62.525032-5.722328 77.988212 22.169929C392.231731 562.972928 382.409015 598.412069 354.870822 614.080933zM413.552316 244.274446c-8.709359 4.955872-19.770276 1.820462-24.656563-7.002484-4.886287-8.822946-1.781576-20.019962 6.928806-24.971741 8.700149-4.946662 19.754926-1.811252 24.647353 7.007601C425.359222 228.130767 422.254511 239.338017 413.552316 244.274446zM643.005194 386.80872c-6.257517 3.558036-14.180977 1.299599-17.697057-5.025457-3.517103-6.330172-1.279133-14.371312 4.963035-17.925255 6.251378-3.558036 14.190187-1.300622 17.699104 5.024433C651.488403 375.212614 649.256572 383.255801 643.005194 386.80872z" p-id="3484" fill="#07C160"></path></svg>